<svg id="图层_1" data-name="图层 1" xmlns="http://www.w3.org/2000/svg" xmlns:xlink="http://www.w3.org/1999/xlink" viewBox="0 0 543.92 205.15"><defs><style>.cls-1,.cls-12{fill:#231815;}.cls-2{fill:#ed6c00;}.cls-12,.cls-13,.cls-16,.cls-3,.cls-4,.cls-5,.cls-6,.cls-8{fill-rule:evenodd;}.cls-3{fill:url(#radial-gradient);}.cls-4{fill:url(#radial-gradient-2);}.cls-5{fill:#fffccf;}.cls-17,.cls-6{fill:#e3c4a0;}.cls-7{fill:#fdd23e;}.cls-8{fill:url(#radial-gradient-3);}.cls-9{fill:#edb035;}.cls-10{fill:#3f210f;}.cls-11{fill:#f8b62d;}.cls-13,.cls-15{fill:#fff;}.cls-14,.cls-16{fill:#602b16;}</style><radialGradient id="radial-gradient" cx="176.28" cy="256.41" r="13.28" gradientUnits="userSpaceOnUse"><stop offset="0.32" stop-color="#e2c4a0"/><stop offset="0.57" stop-color="#e1c29d"/><stop offset="0.72" stop-color="#dfbd95"/><stop offset="0.85" stop-color="#dbb386"/><stop offset="0.97" stop-color="#d6a671"/><stop offset="1" stop-color="#d4a26b"/></radialGradient><radialGradient id="radial-gradient-2" cx="261.8" cy="244.73" r="13.28" xlink:href="#radial-gradient"/><radialGradient id="radial-gradient-3" cx="221.51" cy="266.93" r="46.44" gradientUnits="userSpaceOnUse"><stop offset="0.32" stop-color="#fcddb0"/><stop offset="0.55" stop-color="#fadbad"/><stop offset="0.69" stop-color="#f5d3a5"/><stop offset="0.81" stop-color="#edc796"/><stop offset="0.92" stop-color="#e1b581"/><stop offset="1" stop-color="#d4a26b"/></radialGradient></defs><title>logo 全民易装</title><polygon class="cls-1" points="374.09 83.88 374.09 44.93 443.43 44.93 443.43 55.36 384.52 55.36 384.52 59.19 443.43 59.19 443.43 69.62 384.52 69.62 384.52 73.44 443.43 73.44 443.43 83.88 374.09 83.88"/><polygon class="cls-1" points="518.61 133.37 518.25 132.76 506.54 100.1 492.72 100.1 492.72 122.93 512.48 122.93 512.48 133.37 482.28 133.37 482.28 119.22 477.21 133.37 464.1 133.37 476.02 100.1 464.49 100.1 464.49 89.66 543.92 89.66 543.92 100.1 519.66 100.1 522.14 107.04 543.92 107.04 543.92 117.47 525.88 117.47 527.84 122.93 543.92 122.93 543.92 133.37 518.61 133.37"/><polygon class="cls-1" points="499.14 83.98 499.14 73.55 518.24 73.55 518.24 62.6 499.14 62.6 499.14 52.17 518.24 52.17 518.24 44.93 528.68 44.93 528.68 52.17 543.92 52.17 543.92 62.6 528.68 62.6 528.68 73.55 543.92 73.55 543.92 83.98 499.14 83.98"/><polygon class="cls-1" points="482.28 83.89 482.28 62.6 464.49 62.6 464.49 52.17 482.28 52.17 482.28 44.93 492.72 44.93 492.72 83.89 482.28 83.89"/><rect class="cls-1" x="464.49" y="73.55" width="11.07" height="10.44"/><polygon class="cls-1" points="234.54 72.24 219.69 55.36 197.5 55.36 182.65 72.24 167.75 72.24 191.8 44.93 225.94 44.93 225.94 45.56 249.43 72.24 234.54 72.24"/><polygon class="cls-1" points="168.88 133.37 168.88 122.93 203.38 122.93 203.38 110.71 168.88 110.71 168.88 100.27 203.38 100.27 203.38 88.05 168.88 88.05 168.88 77.62 230.85 77.62 230.85 88.05 213.81 88.05 213.81 100.27 248.31 100.27 248.31 110.71 213.81 110.71 213.81 122.93 248.31 122.93 248.31 133.37 168.88 133.37"/><rect class="cls-1" x="237.24" y="77.62" width="11.07" height="10.44"/><polygon class="cls-1" points="420.1 133.49 420.1 123.06 432.22 123.06 432.22 100.05 428.16 100.05 398.74 133.49 383.31 133.49 412.57 100.05 404.31 100.05 374.9 133.49 359.47 133.49 388.73 100.05 381.05 100.05 376.88 104.83 362.43 104.83 375.71 89.61 443.43 89.61 443.43 133.49 420.1 133.49"/><path class="cls-1" d="M473.5,311.14l-8.7-24.28H432.05V300.7h18.73v10.44H421.62V222.69h79.44v38.68l-.92.22H468.87l5.31,14.82h11.14l4.23-4.85h12.55l1,.78-.56.83-11.94,13.69H477.92l5,13.84h18.18v10.44Zm-12.44-34.72-5.31-14.82h-23.7v14.82Zm29.55-25.26v-18H432.05v18Z" transform="translate(-154.28 -177.77)"/><path class="cls-1" d="M329,337l3.94,17.1.86,4.76.86-4.66L338,337h6.58l3.55,17.09.91,4.76.92-4.58L354,337h6.35l-8.4,29.86h-6l-3.61-17.46-1.05-5.77-1.05,5.77-3.61,17.46h-5.79L322.36,337Z" transform="translate(-154.28 -177.77)"/><path class="cls-1" d="M369,337l3.94,17.1.86,4.76.86-4.66L378,337h6.58l3.55,17.09.91,4.76.92-4.58,4-17.28h6.35l-8.4,29.86h-6l-3.61-17.46-1.05-5.77-1.05,5.77-3.61,17.46h-5.79L362.34,337Z" transform="translate(-154.28 -177.77)"/><path class="cls-1" d="M408.94,337l3.94,17.1.86,4.76.86-4.66L418,337h6.58l3.55,17.09.91,4.76.92-4.58,4-17.28h6.35l-8.4,29.86h-6l-3.61-17.46-1.05-5.77-1.05,5.77-3.61,17.46h-5.79L402.32,337Z" transform="translate(-154.28 -177.77)"/><path class="cls-1" d="M442,360.8h6.14v6.06H442Z" transform="translate(-154.28 -177.77)"/><path class="cls-2" d="M481.48,358.13a11.12,11.12,0,0,1-2.32,4.27l3.43,3.23L479.34,369l-3.59-3.4a15,15,0,0,1-2.84,1.4,15.23,15.23,0,0,1-4.8.67,13.75,13.75,0,0,1-9.65-3.48q-4.62-4.19-4.62-12.31t4.74-12.38a14,14,0,0,1,9.62-3.42,13.8,13.8,0,0,1,9.72,3.63q4.54,4.19,4.54,11.73A19.85,19.85,0,0,1,481.48,358.13Zm-11.32,4a10.27,10.27,0,0,0,1.4-.51l-3-2.87,3.21-3.35,3,2.86a14.1,14.1,0,0,0,1-2.55,14.69,14.69,0,0,0,.45-3.83q0-5-2.06-7.77a7,7,0,0,0-6-2.74,7.32,7.32,0,0,0-5.91,2.63q-2.21,2.63-2.21,7.88,0,6.14,3.16,8.79a7.37,7.37,0,0,0,4.9,1.72A8,8,0,0,0,470.17,362.14Z" transform="translate(-154.28 -177.77)"/><path class="cls-2" d="M507.85,337h9v29.86H511V346.66q0-.87,0-2.44t0-2.42l-5.66,25.05h-6.06l-5.62-25.05q0,.85,0,2.42t0,2.44v20.19h-5.81V337H497l5.43,23.47Z" transform="translate(-154.28 -177.77)"/><path class="cls-2" d="M540.46,337h7.07l-10,18.66v11.19h-6.24V355.66L521,337h7.35l6.2,13Z" transform="translate(-154.28 -177.77)"/><path class="cls-2" d="M557.62,366.86h-6.2V337h6.2Z" transform="translate(-154.28 -177.77)"/><path class="cls-2" d="M562.17,361.59l15.26-19.3H562.56V337h22.62v5l-15.46,19.59h15.5v5.27h-23Z" transform="translate(-154.28 -177.77)"/><path class="cls-1" d="M589.88,360.8H596v6.06h-6.14Z" transform="translate(-154.28 -177.77)"/><path class="cls-1" d="M605.66,340.12a12.29,12.29,0,0,1,9.18-3.69q7.45,0,10.9,4.94a10.77,10.77,0,0,1,2,5.57h-6.24a8.5,8.5,0,0,0-1.53-3.24,6.15,6.15,0,0,0-4.94-1.94,6.09,6.09,0,0,0-5.26,2.74q-1.92,2.74-1.92,7.77t2,7.52a6.36,6.36,0,0,0,5.16,2.5,5.85,5.85,0,0,0,4.89-2.15,9.43,9.43,0,0,0,1.55-3.46h6.2a13.45,13.45,0,0,1-4.1,7.94,11.93,11.93,0,0,1-8.45,3.06q-6.37,0-10-4.13t-3.65-11.38Q601.51,344.35,605.66,340.12Z" transform="translate(-154.28 -177.77)"/><path class="cls-1" d="M656.58,364.2q-3.38,3.48-9.78,3.48T637,364.2q-4.54-4.27-4.54-12.31,0-8.2,4.54-12.31,3.38-3.48,9.78-3.48t9.78,3.48q4.52,4.11,4.52,12.31Q661.1,359.93,656.58,364.2Zm-3.9-4.54q2.18-2.73,2.18-7.78t-2.18-7.77a7.12,7.12,0,0,0-5.88-2.74,7.21,7.21,0,0,0-5.91,2.73q-2.21,2.73-2.21,7.78t2.21,7.78a7.21,7.21,0,0,0,5.91,2.73A7.13,7.13,0,0,0,652.68,359.67Z" transform="translate(-154.28 -177.77)"/><path class="cls-1" d="M686.49,337h9v29.86h-5.81V346.66q0-.87,0-2.44t0-2.42L684,366.86H678l-5.62-25.05q0,.85,0,2.42t0,2.44v20.19h-5.81V337h9.08l5.43,23.47Z" transform="translate(-154.28 -177.77)"/><path class="cls-3" d="M174.45,243.37A13.17,13.17,0,1,1,163,258.23,13.34,13.34,0,0,1,174.45,243.37Z" transform="translate(-154.28 -177.77)"/><path class="cls-4" d="M260,231.69a13.17,13.17,0,1,1-11.45,14.85A13.34,13.34,0,0,1,260,231.69Z" transform="translate(-154.28 -177.77)"/><path class="cls-5" d="M260.77,237.34a7.46,7.46,0,1,1-6.48,8.41A7.56,7.56,0,0,1,260.77,237.34Z" transform="translate(-154.28 -177.77)"/><path class="cls-5" d="M260.77,237.34a7.46,7.46,0,1,1-6.48,8.41A7.56,7.56,0,0,1,260.77,237.34Z" transform="translate(-154.28 -177.77)"/><path class="cls-5" d="M175.24,249a7.46,7.46,0,1,1-6.48,8.41A7.56,7.56,0,0,1,175.24,249Z" transform="translate(-154.28 -177.77)"/><path class="cls-5" d="M175.24,249a7.46,7.46,0,1,1-6.48,8.41A7.56,7.56,0,0,1,175.24,249Z" transform="translate(-154.28 -177.77)"/><path class="cls-6" d="M214.07,377.86c0-4.93-9.39-8.92-21-8.92s-21,4-21,8.92,9.39,5.06,21,5.06S214.07,382.78,214.07,377.86Z" transform="translate(-154.28 -177.77)"/><path class="cls-6" d="M252.64,368.93c-11.59,0-21,4-21,8.92s9.39,5.06,21,5.06,21-.13,21-5.06S264.23,368.93,252.64,368.93Z" transform="translate(-154.28 -177.77)"/><path class="cls-2" d="M170.63,334.3c0-14.56,9.53-32.11,22.83-45.23,11.42-11.26,12.91-15.51,29.4-15.51,16.21,0,17.65,6.7,29,17.65,13.64,13.17,23.42,31,23.42,45.81,0,27.06-16.72,38.66-52.41,38.66S170.63,361.36,170.63,334.3Z" transform="translate(-154.28 -177.77)"/><rect class="cls-7" x="34.39" y="116.26" width="10.74" height="57.62"/><rect class="cls-7" x="92.04" y="116.26" width="10.74" height="57.62"/><path class="cls-8" d="M182.78,231.34l-8.62,12.9c-.58,7.82-1.82,21.39,4.48,29.35-8.08,30.76,20.86,40.82,48.92,37.84,27.82-4.65,52.91-22.09,36.67-49.53,3.87-9.35-1.05-22.07-3.76-29.45l-11.84-10.11c-9.19-2.71-32.27,9.12-32.27,9.12S190.88,226.27,182.78,231.34Z" transform="translate(-154.28 -177.77)"/><path class="cls-8" d="M182.78,231.34l-8.62,12.9c-.58,7.82-1.82,21.39,4.48,29.35-8.08,30.76,20.86,40.82,48.92,37.84,27.82-4.65,52.91-22.09,36.67-49.53,3.87-9.35-1.05-22.07-3.76-29.45l-11.84-10.11c-9.19-2.71-32.27,9.12-32.27,9.12S190.88,226.27,182.78,231.34Z" transform="translate(-154.28 -177.77)"/><path class="cls-7" d="M167.61,246.46s-10.43-46,33.08-61.61c42.44-15.27,70.56,31.91,66.55,49.14C267.23,234,184.85,246.68,167.61,246.46Z" transform="translate(-154.28 -177.77)"/><path class="cls-9" d="M208,215.68l-7.68-30.07a5.41,5.41,0,0,1,1-5c2-2.39,10.14-3,13.4-2.73s4.52,1.18,4.92,5,.26,36.8.26,36.8.55,3.77-3.75,4.94c0,0-4.31,1.17-6.26-2.73Z" transform="translate(-154.28 -177.77)"/><path class="cls-10" d="M258.16,232.35c.46,3.28-17.5,8.45-40.12,11.54s-41.33,2.93-41.79-.35,17.5-8.45,40.12-11.54S257.7,229.06,258.16,232.35Z" transform="translate(-154.28 -177.77)"/><path class="cls-11" d="M267.36,233.32c.49,3.49-21.43,9.36-49,13.12s-50.24,4-50.73.5,21.43-9.36,49-13.12S266.87,229.83,267.36,233.32Z" transform="translate(-154.28 -177.77)"/><path class="cls-12" d="M200.11,255.67c2.79-.38,5.45,2.17,5.94,5.71s-1.36,6.7-4.15,7.08-5.45-2.17-5.94-5.71S197.32,256.05,200.11,255.67Z" transform="translate(-154.28 -177.77)"/><path class="cls-12" d="M237.85,250.52c2.79-.38,5.45,2.17,5.94,5.71s-1.36,6.7-4.15,7.08-5.45-2.17-5.94-5.71S235.07,250.9,237.85,250.52Z" transform="translate(-154.28 -177.77)"/><path class="cls-12" d="M233.7,276.7c-.81-5.75-6.81-7.3-12.66-6.5s-11.2,3.9-10.39,9.64,7.14,9.63,13,8.83S234.5,282.44,233.7,276.7Z" transform="translate(-154.28 -177.77)"/><path class="cls-13" d="M221.29,272c2.5-.34,4.61-.08,4.7.58s-1.86,1.48-4.36,1.82-4.61.08-4.7-.58S218.79,272.35,221.29,272Z" transform="translate(-154.28 -177.77)"/><path class="cls-13" d="M237.33,252.65a1.81,1.81,0,1,1-1.57,2A1.83,1.83,0,0,1,237.33,252.65Z" transform="translate(-154.28 -177.77)"/><path class="cls-13" d="M199.26,257.85a1.81,1.81,0,1,1-1.57,2A1.83,1.83,0,0,1,199.26,257.85Z" transform="translate(-154.28 -177.77)"/><path class="cls-7" d="M270.79,358.35H176.3a57.4,57.4,0,0,1-4.49-14.95H274.59A56.59,56.59,0,0,1,270.79,358.35Z" transform="translate(-154.28 -177.77)"/><rect class="cls-14" x="49.88" y="160.58" width="39.93" height="23.75" rx="1.68" ry="1.68"/><path class="cls-15" d="M263.25,334.37a.6.6,0,0,0-.56-.31h-7a.55.55,0,0,0-.23,0l-.9.38a.54.54,0,0,1-.27,0l-2.8-.45a.55.55,0,0,0-.57.58v2.85a.55.55,0,0,0,.58.58l2.62-.52a.89.89,0,0,1,.48.08l.85.37a.65.65,0,0,0,.29,0h.09l.09,1.06a.61.61,0,0,0,.53.59h.64V362.4l-.57,2.37a.59.59,0,0,0,.54.75h2.75a.57.57,0,0,0,.52-.75l-.59-2.37V339.65h.68a.58.58,0,0,0,.53-.55l.06-1a.3.3,0,0,0,.23-.33v-1h1.83l4.8,2.32Z" transform="translate(-154.28 -177.77)"/><rect class="cls-7" x="51.61" y="162.31" width="36.47" height="20.29" rx="1.68" ry="1.68"/><rect class="cls-15" x="38.55" y="159.78" width="2.55" height="0.64"/><rect class="cls-15" x="38.55" y="173.03" width="2.55" height="0.64"/><path class="cls-13" d="M194.58,364.5a.48.48,0,1,0-1,0h0V351.43h1V364.5Zm-.48,1.28c.28,0,.48-1.05.48-1.28a.48.48,0,1,0-1,0h0C193.63,364.81,193.88,365.78,194.11,365.78Z" transform="translate(-154.28 -177.77)"/><path class="cls-13" d="M192.27,339.36v10a.88.88,0,0,0,.83-1v-8.08A.88.88,0,0,0,192.27,339.36Z" transform="translate(-154.28 -177.77)"/><path class="cls-13" d="M195.1,340.33v8.08a.88.88,0,0,0,.83,1v-10A.88.88,0,0,0,195.1,340.33Z" transform="translate(-154.28 -177.77)"/><path class="cls-16" d="M195.1,348.42v-8.08a.88.88,0,0,1,.83-1v-1.19h-3.66v1.17a.88.88,0,0,1,.83,1v8.08a.88.88,0,0,1-.83,1v1.44h3.66v-1.42A.88.88,0,0,1,195.1,348.42Z" transform="translate(-154.28 -177.77)"/><rect class="cls-14" x="37.29" y="165" width="5.08" height="16.22"/><path class="cls-13" d="M223.22,313.69l6.1,8.33,15.07-13.62h0A75,75,0,0,1,223.22,313.69Zm0,0-4.75,9.16-17-11.16h0A75,75,0,0,0,223.22,313.69Z" transform="translate(-154.28 -177.77)"/><rect class="cls-15" x="30.55" y="159.78" width="2.55" height="0.64"/><rect class="cls-15" x="30.55" y="173.03" width="2.55" height="0.64"/><path class="cls-13" d="M186.58,364.5a.48.48,0,1,0-1,0h0V351.43h1V364.5Zm-.48,1.28c.28,0,.48-1.05.48-1.28a.48.48,0,1,0-1,0h0C185.63,364.81,185.88,365.78,186.11,365.78Z" transform="translate(-154.28 -177.77)"/><path class="cls-13" d="M184.27,339.36v10a.88.88,0,0,0,.83-1v-8.08A.88.88,0,0,0,184.27,339.36Z" transform="translate(-154.28 -177.77)"/><path class="cls-13" d="M187.1,340.33v8.08a.88.88,0,0,0,.83,1v-10A.88.88,0,0,0,187.1,340.33Z" transform="translate(-154.28 -177.77)"/><path class="cls-16" d="M187.1,348.42v-8.08a.88.88,0,0,1,.83-1v-1.19h-3.66v1.17a.88.88,0,0,1,.83,1v8.08a.88.88,0,0,1-.83,1v1.44h3.66v-1.42A.88.88,0,0,1,187.1,348.42Z" transform="translate(-154.28 -177.77)"/><polygon class="cls-13" points="31.59 188.01 32.07 188.01 32.48 187 32.12 186.45 31.54 186.45 31.18 187 31.59 188.01"/><rect class="cls-14" x="29.29" y="165" width="5.08" height="16.22"/><rect class="cls-14" x="101.64" y="165" width="5.08" height="16.22"/><path class="cls-17" d="M185,323.59c-3,7.61-13.78,17.44-21.91,16.6s-10.57-12.05-7.56-19.66,12.05-13.09,20.19-12.24S188,316,185,323.59Z" transform="translate(-154.28 -177.77)"/><path class="cls-17" d="M259.78,323.59c3,7.61,13.78,17.44,21.91,16.6s10.57-12.05,7.56-19.66-12.05-13.09-20.19-12.24S256.77,316,259.78,323.59Z" transform="translate(-154.28 -177.77)"/><path class="cls-16" d="M231.51,346.08v-2.16a.47.47,0,0,0-.47-.47H217.32a.47.47,0,0,0-.47.47v12.52a.47.47,0,0,0,.47.47H231a.47.47,0,0,0,.47-.47v-2.16a.47.47,0,0,0-.47-.47H220.23a.29.29,0,0,1-.29-.29V352a.29.29,0,0,1,.29-.29H231a.47.47,0,0,0,.47-.47V349.1a.47.47,0,0,0-.47-.47H220.23a.29.29,0,0,1-.29-.29v-1.51a.29.29,0,0,1,.29-.29H231A.47.47,0,0,0,231.51,346.08Z" transform="translate(-154.28 -177.77)"/></svg>